<svg xmlns="http://www.w3.org/2000/svg" xmlns:xlink="http://www.w3.org/1999/xlink" width="302" height="262" viewBox="0 0 302 262">
  <defs>
    <clipPath id="clip-Shopping_Ads">
      <rect width="302" height="262"/>
    </clipPath>
  </defs>
  <g id="Shopping_Ads" data-name="Shopping Ads" clip-path="url(#clip-Shopping_Ads)">
    <g id="Group_4773" data-name="Group 4773">
      <g id="Group_4751" data-name="Group 4751">
        <g id="Group_4316" data-name="Group 4316">
          <rect id="Rectangle_695" data-name="Rectangle 695" width="302" height="262" fill="none"/>
        </g>
      </g>
      <g id="Group_4772" data-name="Group 4772">
        <g id="Group_4770" data-name="Group 4770" transform="translate(76.617 10.905)">
          <path id="Path_539" data-name="Path 539" d="M485.932,222.968V186.814a20.925,20.925,0,0,0-20.924-20.925h-76.6a20.925,20.925,0,0,0-20.925,20.925v24.01h-1.346v8.46h1.346v9.024h-1.346v12.972h1.346v5.64h-1.346v12.972h1.346V385.155a20.924,20.924,0,0,0,20.925,20.925h76.6a20.925,20.925,0,0,0,20.925-20.925V248.7h1.32V222.968Z" transform="translate(-366.141 -165.89)" fill="#037ee6"/>
          <path id="Path_540" data-name="Path 540" d="M475.487,178.7h-10a7.424,7.424,0,0,1-6.874,10.228H414.734A7.424,7.424,0,0,1,407.86,178.7h-9.338A15.626,15.626,0,0,0,382.9,194.326v198.05A15.626,15.626,0,0,0,398.522,408h76.965a15.626,15.626,0,0,0,15.626-15.626h0V194.326A15.626,15.626,0,0,0,475.487,178.7Z" transform="translate(-376.449 -173.256)" fill="#fff"/>
          <path id="Path_541" data-name="Path 541" d="M493.073,290.756H412.237a2.127,2.127,0,0,1-2.125-2.125v-32.8a2.127,2.127,0,0,1,2.125-2.125h80.837a2.127,2.127,0,0,1,2.125,2.125v32.8A2.127,2.127,0,0,1,493.073,290.756Z" transform="translate(-391.427 -216.388)" fill="#faf076"/>
          <path id="Path_542" data-name="Path 542" d="M495.5,371.092H430.062a2.337,2.337,0,1,1,0-4.674H495.5a2.337,2.337,0,0,1,0,4.674Z" transform="translate(-401.555 -281.204)" fill="#037ee6"/>
          <path id="Path_543" data-name="Path 543" d="M495.217,398.517H429.775a2.55,2.55,0,0,1,0-5.1h65.442a2.55,2.55,0,0,1,0,5.1Z" transform="translate(-401.267 -296.73)" fill="#e4e4e4"/>
          <path id="Path_544" data-name="Path 544" d="M495.217,426.017H429.775a2.55,2.55,0,0,1,0-5.1h65.442a2.55,2.55,0,0,1,0,5.1Z" transform="translate(-401.267 -312.544)" fill="#e4e4e4"/>
          <path id="Path_556" data-name="Path 556" d="M593.233,362.657" transform="translate(-496.73 -279.041)" fill="#6c63ff"/>
          <path id="Path_566" data-name="Path 566" d="M500.3,185.118H488.825a.85.85,0,0,1,0-1.7H500.3a.85.85,0,1,1,0,1.7Z" transform="translate(-436.202 -175.969)" fill="#fff"/>
          <circle id="Ellipse_35" data-name="Ellipse 35" cx="0.85" cy="0.85" r="0.85" transform="translate(68.984 7.449)" fill="#fff"/>
          <path id="Path_609" data-name="Path 609" d="M646.233,263.231H611.384a2.357,2.357,0,0,1-2.354-2.355V226.028a2.357,2.357,0,0,1,2.354-2.355h34.848a2.357,2.357,0,0,1,2.355,2.355v34.848A2.357,2.357,0,0,1,646.233,263.231Z" transform="translate(-590.344 -99.352)" fill="#e5e5e5"/>
          <path id="Path_39448" data-name="Path 39448" d="M646.233,263.231H611.384a2.357,2.357,0,0,1-2.354-2.355V226.028a2.357,2.357,0,0,1,2.354-2.355h34.848a2.357,2.357,0,0,1,2.355,2.355v34.848A2.357,2.357,0,0,1,646.233,263.231Z" transform="translate(-591.384 -55.352)" fill="#e5e5e5"/>
          <path id="Path_39446" data-name="Path 39446" d="M646.233,263.231H611.384a2.357,2.357,0,0,1-2.354-2.355V226.028a2.357,2.357,0,0,1,2.354-2.355h34.848a2.357,2.357,0,0,1,2.355,2.355v34.848A2.357,2.357,0,0,1,646.233,263.231Z" transform="translate(-544.083 -99.352)" fill="#e5e5e5"/>
          <path id="Path_39447" data-name="Path 39447" d="M646.233,263.231H611.384a2.357,2.357,0,0,1-2.354-2.355V226.028a2.357,2.357,0,0,1,2.354-2.355h34.848a2.357,2.357,0,0,1,2.355,2.355v34.848A2.357,2.357,0,0,1,646.233,263.231Z" transform="translate(-545.122 -55.352)" fill="#e5e5e5"/>
        </g>
        <g id="Group_4771" data-name="Group 4771" transform="matrix(0.978, -0.208, 0.208, 0.978, -2294.104, -4525.097)">
          <path id="Path_39449" data-name="Path 39449" d="M192.976,266.776,191.683,270H173.632a2.108,2.108,0,0,1-2.01-1.464,2.1,2.1,0,0,1-.087-.875l3.411-30.732.041-.359,14.282.443-.029.214-.4,3.034-2.815,21.4Z" transform="translate(1154.796 4797.926)" fill="#155bcd"/>
          <path id="Path_39450" data-name="Path 39450" d="M156.09,194.2v15.4l10.164,2.9V191.3Z" transform="translate(1161.29 4816.976)" fill="#84a9ff"/>
          <path id="Path_39451" data-name="Path 39451" d="M196.591,184.207v26.944H170.847a4.622,4.622,0,0,1-4.511-3.591h0a4.56,4.56,0,0,1-.117-1.029v-17.7a4.62,4.62,0,0,1,4.624-4.618Z" transform="translate(1157.027 4819.96)" fill="#050f64"/>
          <path id="Path_39452" data-name="Path 39452" d="M196.233,230.727l-2.164,4.665-.559,1.209a2.4,2.4,0,0,1-2.737,1.322l-.532-.128-6.7-1.605-7.192-1.721-.21-.05a1.672,1.672,0,0,1-1.284-1.63v-2.061Z" transform="translate(1153.394 4800.384)" fill="#84a9ff"/>
          <path id="Path_39453" data-name="Path 39453" d="M198.972,254.781l-1.259,9.486h.785a2.958,2.958,0,0,0,2.934-2.567l.475-3.575a2.959,2.959,0,0,0-2.934-3.344Z" transform="translate(1143.775 4790.262)" fill="#050f64"/>
          <path id="Path_39454" data-name="Path 39454" d="M255.944,151.252V216.31q-3.449-2.963-7.029-5.525l-.292-.209-.177-.123c-.312-.22-.626-.439-.94-.653-.158-.11-.314-.218-.472-.324s-.314-.213-.473-.317-.314-.211-.473-.314q-.713-.468-1.429-.922l-.408-.258q-.753-.468-1.512-.919c-.162-.1-.323-.192-.484-.284-.129-.078-.261-.153-.392-.228-.576-.334-1.156-.657-1.739-.975-.163-.09-.33-.178-.5-.272q-.3-.163-.609-.322c-.2-.107-.408-.212-.611-.316l-.067-.035c-.387-.2-.774-.39-1.162-.58-.2-.1-.408-.2-.618-.3-.61-.295-1.224-.577-1.845-.853a.473.473,0,0,0-.046-.02c-.2-.09-.4-.175-.6-.262s-.418-.179-.627-.272c-.451-.19-.9-.378-1.361-.558-.136-.057-.284-.114-.428-.17-.373-.145-.745-.288-1.121-.426-.088-.034-.178-.068-.272-.1l-.155-.057c-.362-.136-.722-.262-1.088-.387q-1.36-.468-2.73-.88l-.422-.125q-.68-.2-1.36-.382l-.459-.122-.1-.027-.383-.1c-.148-.038-.3-.076-.443-.111-.218-.054-.436-.108-.656-.159s-.448-.106-.672-.158-.444-.1-.667-.147q-.3-.065-.6-.126c-.052-.011-.1-.023-.155-.032l-.472-.094q-.975-.192-1.958-.354l-.434-.071h-.021l-.536-.083c-.181-.029-.363-.056-.544-.082a30.959,30.959,0,0,1-1.36-3.155q-4.062-11.15,1.36-23.789,16.986-1.087,31.924-12.476l.3-.222A82.763,82.763,0,0,0,255.944,151.252Z" transform="translate(1137.213 4833.828)" fill="#155bcd"/>
        </g>
        <g id="Group_4769" data-name="Group 4769" transform="translate(27.6 35.039)">
          <path id="Path_39422" data-name="Path 39422" d="M901.845,653.393,884.53,641.146c5.84-5.689,11.151-13.789,16.231-22.948l17.315,12.247C911.157,638.3,905.3,646.015,901.845,653.393Z" transform="translate(-661.791 -453.416)" fill="#6c63ff"/>
          <circle id="Ellipse_139" data-name="Ellipse 139" cx="5.11" cy="5.11" r="5.11" transform="translate(234.948 176.718)" fill="#fff"/>
          <path id="Path_39423" data-name="Path 39423" d="M616.92,536.554h-1.9a.252.252,0,0,0-.252.252v.834a.252.252,0,0,0,.252.252h.315v1.25h1.271v-1.25h.315a.252.252,0,0,0,.252-.252v-.834A.252.252,0,0,0,616.92,536.554Z" transform="translate(-460.392 -392.461)" fill="#e6e6e6"/>
          <path id="Path_39425" data-name="Path 39425" d="M618.5,537.627a.544.544,0,0,1-1.087,0" transform="translate(-462.364 -393.263)" opacity="0.2"/>
          <path id="Path_39426" data-name="Path 39426" d="M848.731,641.218h-3.558a.472.472,0,0,0-.472.472v1.562a.472.472,0,0,0,.472.472h.589v2.34h2.379v-2.34h.59a.472.472,0,0,0,.472-.472V641.69a.472.472,0,0,0-.472-.472Z" transform="translate(-632.056 -470.601)" fill="#e6e6e6"/>
          <path id="Path_39428" data-name="Path 39428" d="M851.68,643.226a1.018,1.018,0,1,1-2.035,0" transform="translate(-635.747 -472.101)" opacity="0.2"/>
          <path id="Path_39430" data-name="Path 39430" d="M758.066,674.192H736.858c1.483-8.017,1.142-17.7,0-28.107h21.208C756.955,656.5,756.623,666.175,758.066,674.192Z" transform="translate(-551.542 -474.235)" fill="#6c63ff"/>
          <circle id="Ellipse_140" data-name="Ellipse 140" cx="5.11" cy="5.11" r="5.11" transform="translate(190.937 180.026)" fill="#fff"/>
          <path id="Path_39431" data-name="Path 39431" d="M322.243,296.589l4.761-.433,3.03-7.358-5.41-3.03Z" transform="translate(-202.466 -185.089)" fill="#ffb8b8"/>
          <path id="Path_39432" data-name="Path 39432" d="M618.806,475.514h0a2.685,2.685,0,0,0-2.332-3.679l-7.392-.441-1.088,3.619,7.61,2.09A2.685,2.685,0,0,0,618.806,475.514Z" transform="translate(-455.335 -343.814)" fill="#ffb8b8"/>
          <path id="Path_39433" data-name="Path 39433" d="M512.069,419.515l-.081-6.792-16.42-2.62L482.918,395.6a4.14,4.14,0,0,0-5.4-.738h0a4.14,4.14,0,0,0-.721,6.316l10.436,12.843Z" transform="translate(-356.536 -286.165)" fill="#037ee6"/>
          <path id="Path_39434" data-name="Path 39434" d="M463.726,580.15h4.328l10.736-48.539,11.122,14.995,6.492,32.462h4.112l-.866-34.842L485.151,507H470.867c-3.9,7.064-6.965,14.346-3.463,21.858Z" transform="translate(-347.628 -370.399)"/>
          <path id="Path_39435" data-name="Path 39435" d="M582.052,792.537a1.13,1.13,0,0,0,.881,1.449l10.591,1.88a1.743,1.743,0,0,0,1.977-1.194h0a1.732,1.732,0,0,0-.847-2.059,16.194,16.194,0,0,1-5.841-5.078c-1.164,1.084-2.465.982-3.847.183l-1.465.183Z" transform="translate(-435.93 -579.838)"/>
          <path id="Path_39436" data-name="Path 39436" d="M455.667,792.537a1.13,1.13,0,0,0,.881,1.449l10.591,1.88a1.743,1.743,0,0,0,1.977-1.194h0a1.732,1.732,0,0,0-.847-2.059,16.2,16.2,0,0,1-5.841-5.078c-1.164,1.084-2.465.982-3.847.183l-1.465.183Z" transform="translate(-341.573 -579.838)"/>
          <circle id="Ellipse_141" data-name="Ellipse 141" cx="6.06" cy="6.06" r="6.06" transform="translate(121.617 94.295)" fill="#ffb8b8"/>
          <path id="Path_39437" data-name="Path 39437" d="M473.8,420.643l15.8-.433-4.64-14.6c2.883-4.622-.018-9.24-4.125-13.856l-3.246-2.164-5.194-.433h0a12.751,12.751,0,0,0-3.434,8.883A57.22,57.22,0,0,0,473.8,420.643Z" transform="translate(-351.535 -282.417)" fill="#037ee6"/>
          <path id="Path_39438" data-name="Path 39438" d="M602.586,529.764h0a2.685,2.685,0,0,0-.7-4.3l-6.623-3.313-2.424,2.9,6.174,4.915A2.685,2.685,0,0,0,602.586,529.764Z" transform="translate(-444.023 -381.709)" fill="#ffb8b8"/>
          <path id="Path_39439" data-name="Path 39439" d="M524.9,438.844l2.6-6.276L513.428,423.7l-5.922-18.314a4.14,4.14,0,0,0-4.671-2.8h0a4.14,4.14,0,0,0-3.148,5.523l4.542,15.913Z" transform="translate(-374.28 -292.393)" fill="#037ee6"/>
          <path id="Path_39440" data-name="Path 39440" d="M470.13,333.3a11.474,11.474,0,0,0,3.463,7.574c1.3,1.053,3.017,1.009,3.679-.433a17.151,17.151,0,0,1,7.142-7.142c5.494-2.915-1.948-7.9-7.142-7.142C473.369,326.73,470.13,329.356,470.13,333.3Z" transform="translate(-352.409 -235.327)" fill="#2f2e41"/>
          <circle id="Ellipse_142" data-name="Ellipse 142" cx="4.328" cy="4.328" r="4.328" transform="translate(117.072 86.071)" fill="#2f2e41"/>
          <path id="Path_39441" data-name="Path 39441" d="M492.494,305.952a4.326,4.326,0,0,0-4-4.312c.108-.008.215-.016.325-.016a4.328,4.328,0,0,1,0,8.657c-.11,0-.217-.008-.325-.016A4.326,4.326,0,0,0,492.494,305.952Z" transform="translate(-366.117 -217.068)" fill="#2f2e41"/>
          <ellipse id="Ellipse_143" data-name="Ellipse 143" cx="0.974" cy="1.298" rx="0.974" ry="1.298" transform="translate(126.81 99.921)" fill="#ffb8b8"/>
          <path id="Path_39442" data-name="Path 39442" d="M561.351,477.227H493.974l-14.268-67.448H467.529v-3.026h14.63L496.427,474.2h64.925Z" transform="translate(-310.933 -275.413)" fill="#050f64"/>
          <circle id="Ellipse_144" data-name="Ellipse 144" cx="6.485" cy="6.485" r="6.485" transform="translate(186.428 201.165)" fill="#050f64"/>
          <circle id="Ellipse_145" data-name="Ellipse 145" cx="6.485" cy="6.485" r="6.485" transform="translate(234.853 201.165)" fill="#050f64"/>
          <path id="Path_39443" data-name="Path 39443" d="M761.705,590.3H696.15l-11.566-57.16H772.56a3.108,3.108,0,0,1,3.07,3.59l-10.855,50.944A3.093,3.093,0,0,1,761.705,590.3Zm-64.843-.865h64.843a2.231,2.231,0,0,0,2.215-1.895L774.776,536.6a2.243,2.243,0,0,0-2.216-2.591H685.634Z" transform="translate(-512.516 -389.916)" fill="#050f64"/>
          <path id="Path_39444" data-name="Path 39444" d="M602.2,511.712l-7.575-56.474.853-.141,7.575,56.474Z" transform="translate(-405.819 -311.507)" fill="#050f64"/>
          <path id="Path_39445" data-name="Path 39445" d="M788.2,511.282l-.854-.138L794.7,455.1l.854.138Z" transform="translate(-549.7 -311.51)" fill="#050f64"/>
          <rect id="Rectangle_1976" data-name="Rectangle 1976" width="0.865" height="56.474" transform="translate(217.565 143.661)" fill="#050f64"/>
          <rect id="Rectangle_1977" data-name="Rectangle 1977" width="0.865" height="83.704" transform="translate(176.483 159.657) rotate(-89.861)" fill="#3f3d56"/>
          <rect id="Rectangle_1978" data-name="Rectangle 1978" width="73.537" height="0.865" transform="translate(180.748 186.008) rotate(-0.392)" fill="#3f3d56"/>
          <ellipse id="Ellipse_146" data-name="Ellipse 146" cx="4.756" cy="2.594" rx="4.756" ry="2.594" transform="translate(153.137 129.825)" fill="#050f64"/>
        </g>
      </g>
    </g>
  </g>
</svg>
